<mxfile host="app.diagrams.net" modified="2024-01-20T06:17:41.212Z" agent="Mozilla/5.0 (X11; Linux x86_64) AppleWebKit/537.36 (KHTML, like Gecko) Chrome/119.0.0.0 Safari/537.36" version="22.1.21" etag="5FvTBF3_TEK65EOzZx3E" type="github">
  <diagram name="第 1 页" id="5DPcmVebkc85AFF4Iekb">
    <mxGraphModel>
      <root>
        <mxCell id="0" />
        <mxCell id="1" parent="0" />
      </root>
    </mxGraphModel>
  </diagram>
</mxfile>
